<svg width="438" height="267" viewBox="0 0 438 267" fill="none" xmlns="http://www.w3.org/2000/svg">
<path d="M87.7266 34.1797H96.1641V86H87.7266V34.1797ZM122.883 86H113.953L104.18 67.2266C104.039 67.2266 103.875 67.25 103.688 67.2969C103.547 67.2969 103.312 67.2969 102.984 67.2969C102.656 67.2969 102.164 67.2969 101.508 67.2969C100.898 67.2969 100.078 67.2969 99.0469 67.2969V61.1094H103.828C104.859 61.1094 105.891 60.9453 106.922 60.6172C107.953 60.2422 108.891 59.6562 109.734 58.8594C110.578 58.0625 111.258 56.9609 111.773 55.5547C112.289 54.1016 112.547 52.3203 112.547 50.2109C112.547 49.3672 112.43 48.4062 112.195 47.3281C111.961 46.2031 111.469 45.1484 110.719 44.1641C110.016 43.1328 109.008 42.2891 107.695 41.6328C106.383 40.9297 104.648 40.5781 102.492 40.5781H99.0469V34.1797H102.633C104.836 34.1797 107.016 34.5312 109.172 35.2344C111.328 35.9375 113.25 36.9922 114.938 38.3984C116.672 39.8047 118.055 41.5156 119.086 43.5312C120.164 45.5 120.703 47.7266 120.703 50.2109C120.703 53.9609 119.836 57.1484 118.102 59.7734C116.367 62.3984 114.023 64.3438 111.07 65.6094L122.883 86ZM152.273 45.9922C154.805 46.2266 157.078 46.9062 159.094 48.0312C161.156 49.1562 162.914 50.6094 164.367 52.3906C165.82 54.1719 166.922 56.2109 167.672 58.5078C168.469 60.8047 168.867 63.1953 168.867 65.6797C168.867 66.8047 168.797 67.9297 168.656 69.0547H144.539V62.8672H160.781C160.781 61.6484 160.57 60.4766 160.148 59.3516C159.773 58.2266 159.188 57.1953 158.391 56.2578C157.641 55.2734 156.75 54.4531 155.719 53.7969C154.688 53.1406 153.539 52.7422 152.273 52.6016V45.9922ZM151.992 79.3906C152.508 79.3906 153.141 79.3438 153.891 79.25C154.688 79.1094 155.508 78.8984 156.352 78.6172C157.242 78.2891 158.109 77.8906 158.953 77.4219C159.844 76.9531 160.617 76.3906 161.273 75.7344L164.367 80.4453C162.82 82.3672 161.016 83.8203 158.953 84.8047C156.891 85.7891 154.266 86.2812 151.078 86.2812C148.5 86.2812 146.086 85.7656 143.836 84.7344C141.586 83.6562 139.664 82.2031 138.07 80.375C136.477 78.5469 135.211 76.4141 134.273 73.9766C133.336 71.5391 132.867 68.9141 132.867 66.1016C132.867 63.4297 133.289 60.8984 134.133 58.5078C135.023 56.1172 136.219 54.0312 137.719 52.25C139.219 50.4219 140.953 48.9453 142.922 47.8203C144.938 46.6953 147.094 46.0625 149.391 45.9219V52.6719C147.656 53 146.227 53.7031 145.102 54.7812C143.977 55.8594 143.086 57.1016 142.43 58.5078C141.82 59.8672 141.375 61.2734 141.094 62.7266C140.859 64.1797 140.742 65.4219 140.742 66.4531C140.742 68.2812 140.953 69.9922 141.375 71.5859C141.844 73.1328 142.547 74.4922 143.484 75.6641C144.422 76.7891 145.57 77.7031 146.93 78.4062C148.336 79.0625 150.023 79.3906 151.992 79.3906ZM194.953 86.3516C192.328 86.3516 190.031 85.7891 188.062 84.6641C186.094 83.4922 184.453 81.9453 183.141 80.0234C181.828 78.1016 180.867 75.8984 180.258 73.4141C179.648 70.9297 179.344 68.3281 179.344 65.6094C179.344 61.9531 179.836 58.8828 180.82 56.3984C181.852 53.9141 183.141 51.8984 184.688 50.3516C186.281 48.7578 188.039 47.6328 189.961 46.9766C191.93 46.3203 193.852 45.9922 195.727 45.9922C197.18 45.9922 198.562 46.1562 199.875 46.4844C201.188 46.8125 202.383 47.2812 203.461 47.8906V55.3438C202.711 54.5 201.82 53.8203 200.789 53.3047C199.805 52.7891 198.727 52.5312 197.555 52.5312C196.148 52.5312 194.859 52.9062 193.688 53.6562C192.562 54.3594 191.602 55.3203 190.805 56.5391C190.008 57.7578 189.398 59.1875 188.977 60.8281C188.555 62.4688 188.344 64.2031 188.344 66.0312C188.344 67.9062 188.555 69.6875 188.977 71.375C189.445 73.0156 190.078 74.4453 190.875 75.6641C191.719 76.8828 192.703 77.8672 193.828 78.6172C195 79.3203 196.289 79.6719 197.695 79.6719C198.867 79.6719 199.922 79.4375 200.859 78.9688C201.797 78.4531 202.664 77.7969 203.461 77V84.3125C202.336 84.875 201.047 85.3672 199.594 85.7891C198.141 86.1641 196.594 86.3516 194.953 86.3516ZM214.852 46.3438L214.781 86C214.594 88.8594 214.008 91.2969 213.023 93.3125C212.086 95.3281 210.867 96.9922 209.367 98.3047C207.867 99.6172 206.133 100.555 204.164 101.117C202.195 101.68 200.086 101.961 197.836 101.961C195.211 101.961 192.609 101.492 190.031 100.555C187.5 99.6641 185.391 98.1406 183.703 95.9844L188.625 91.1328C189.094 91.9297 189.68 92.5859 190.383 93.1016C191.133 93.6172 191.883 94.0156 192.633 94.2969C193.43 94.5781 194.203 94.7656 194.953 94.8594C195.75 95 196.453 95.0703 197.062 95.0703C199.969 95.0703 202.242 94.2266 203.883 92.5391C205.523 90.8516 206.344 87.9688 206.344 83.8906V50.3516L207.258 46.3438H214.852ZM237.07 86H228.492V46.3438H237.07V86ZM237.844 33.6875C237.844 35.0938 237.352 36.2891 236.367 37.2734C235.383 38.2109 234.188 38.6797 232.781 38.6797C231.375 38.6797 230.18 38.1875 229.195 37.2031C228.258 36.2188 227.789 35.0469 227.789 33.6875C227.789 32.2812 228.281 31.0859 229.266 30.1016C230.25 29.1172 231.422 28.625 232.781 28.625C234.188 28.625 235.383 29.1172 236.367 30.1016C237.352 31.0859 237.844 32.2812 237.844 33.6875ZM248.109 57.6641C248.109 55.8828 248.438 54.2891 249.094 52.8828C249.75 51.4297 250.664 50.2109 251.836 49.2266C253.008 48.1953 254.32 47.3984 255.773 46.8359C257.273 46.2266 258.82 45.8516 260.414 45.7109V52.7422C259.195 52.9766 258.234 53.4688 257.531 54.2188C256.875 54.9688 256.547 56.0234 256.547 57.3828C256.547 58.5078 256.898 59.4219 257.602 60.125C258.352 60.7812 259.289 61.3672 260.414 61.8828V69.4062C259.617 69.1719 258.797 68.9141 257.953 68.6328C257.156 68.3047 256.359 67.9531 255.562 67.5781C253.078 66.2656 251.203 64.8828 249.938 63.4297C248.719 61.9766 248.109 60.0547 248.109 57.6641ZM271.594 54.7109C270.328 54.0547 268.969 53.5625 267.516 53.2344C266.109 52.9062 264.703 52.6953 263.297 52.6016V45.6406C265.406 45.7344 267.352 46.0391 269.133 46.5547C270.914 47.0234 272.648 47.7969 274.336 48.875L271.594 54.7109ZM251.836 77.1406C252.773 77.7969 253.875 78.4062 255.141 78.9688C256.453 79.5312 258.094 79.8125 260.062 79.8125H260.414V86.3516C259.242 86.3516 258.164 86.3047 257.18 86.2109C256.195 86.1641 255.211 86.0234 254.227 85.7891C253.289 85.5078 252.328 85.1328 251.344 84.6641C250.359 84.1953 249.328 83.5859 248.25 82.8359L251.836 77.1406ZM263.297 63.0078C264.703 63.4766 266.133 63.9922 267.586 64.5547C269.039 65.1172 270.352 65.8203 271.523 66.6641C272.742 67.5078 273.727 68.5625 274.477 69.8281C275.273 71.0469 275.672 72.5938 275.672 74.4688C275.672 76.2969 275.344 77.8906 274.688 79.25C274.031 80.6094 273.141 81.7812 272.016 82.7656C270.938 83.75 269.648 84.5234 268.148 85.0859C266.648 85.6484 265.031 86.0234 263.297 86.2109V79.5312C264.891 79.25 266.109 78.7578 266.953 78.0547C267.844 77.3047 268.289 76.3203 268.289 75.1016C268.289 73.8828 267.797 72.9453 266.812 72.2891C265.875 71.5859 264.703 70.9766 263.297 70.4609V63.0078ZM298.031 73.9766C298.031 75.5703 298.242 76.8125 298.664 77.7031C299.086 78.5938 299.672 79.2734 300.422 79.7422C301.219 80.2109 302.086 80.5156 303.023 80.6562C304.008 80.75 305.039 80.7969 306.117 80.7969V86C305.508 86.0938 304.898 86.1641 304.289 86.2109C303.773 86.2578 303.141 86.2812 302.391 86.2812C301.688 86.3281 300.984 86.3516 300.281 86.3516C299.578 86.3516 298.852 86.3281 298.102 86.2812C297.398 86.2344 296.789 86.1641 296.273 86.0703C294.68 85.7891 293.438 85.1094 292.547 84.0312C291.656 82.9062 290.977 81.6875 290.508 80.375C290.086 79.0156 289.805 77.7031 289.664 76.4375C289.57 75.1719 289.523 74.1875 289.523 73.4844V52.1094H284.32V46.3438H289.523V35.0938H298.031V46.3438H304.359V52.1094H298.031V73.9766ZM334.734 46.1328C337.312 46.2734 339.656 46.9062 341.766 48.0312C343.875 49.1094 345.633 50.5625 347.039 52.3906C348.492 54.1719 349.617 56.2578 350.414 58.6484C351.211 61.0391 351.609 63.5938 351.609 66.3125C351.609 69.0312 351.188 71.5859 350.344 73.9766C349.547 76.3203 348.422 78.3828 346.969 80.1641C345.516 81.8984 343.734 83.3047 341.625 84.3828C339.516 85.4609 337.219 86.0938 334.734 86.2812V79.5312C337.078 79.0156 338.977 77.5391 340.43 75.1016C341.93 72.6641 342.68 69.7344 342.68 66.3125C342.68 64.5781 342.492 62.9609 342.117 61.4609C341.789 59.9141 341.273 58.5312 340.57 57.3125C339.867 56.0938 339.023 55.0859 338.039 54.2891C337.055 53.4922 335.953 52.9766 334.734 52.7422V46.1328ZM315.117 66.1719C315.117 63.4531 315.516 60.9219 316.312 58.5781C317.109 56.2344 318.234 54.1953 319.688 52.4609C321.188 50.6797 322.969 49.25 325.031 48.1719C327.094 47.0938 329.367 46.4375 331.852 46.2031V52.7422C329.508 53.2578 327.633 54.7344 326.227 57.1719C324.82 59.6094 324.117 62.5391 324.117 65.9609C324.117 67.6953 324.281 69.3359 324.609 70.8828C324.984 72.4297 325.5 73.8125 326.156 75.0312C326.812 76.25 327.609 77.2578 328.547 78.0547C329.531 78.8516 330.633 79.3438 331.852 79.5312V86.2812C329.273 86.0938 326.953 85.4609 324.891 84.3828C322.828 83.2578 321.07 81.8047 319.617 80.0234C318.164 78.2422 317.039 76.1562 316.242 73.7656C315.492 71.375 315.117 68.8438 315.117 66.1719Z" fill="white"/>
<path d="M215.607 121.684V149H211.564L211.318 146.645V121.684H215.607ZM197.818 138.805C197.818 136.977 198.064 135.441 198.557 134.199C199.072 132.957 199.729 131.949 200.525 131.176C201.322 130.402 202.201 129.852 203.162 129.523C204.146 129.172 205.107 128.996 206.045 128.996C206.771 128.996 207.463 129.078 208.119 129.242C208.775 129.406 209.361 129.641 209.877 129.945V133.672C209.479 133.25 209.033 132.91 208.541 132.652C208.049 132.395 207.498 132.266 206.889 132.266C206.162 132.266 205.518 132.453 204.955 132.828C204.393 133.18 203.912 133.672 203.514 134.305C203.139 134.938 202.846 135.664 202.635 136.484C202.424 137.305 202.318 138.184 202.318 139.121C202.318 140.059 202.436 140.938 202.67 141.758C202.904 142.555 203.221 143.258 203.619 143.867C204.018 144.477 204.498 144.957 205.061 145.309C205.646 145.66 206.279 145.836 206.959 145.836C208.107 145.836 209.08 145.379 209.877 144.465V148.121C209.314 148.426 208.658 148.684 207.908 148.895C207.182 149.082 206.408 149.176 205.588 149.176C204.65 149.176 203.725 149.012 202.811 148.684C201.92 148.332 201.123 147.77 200.42 146.996C199.529 145.988 198.873 144.746 198.451 143.27C198.029 141.77 197.818 140.281 197.818 138.805ZM230.83 128.996C232.096 129.113 233.232 129.453 234.24 130.016C235.271 130.578 236.15 131.305 236.877 132.195C237.604 133.086 238.154 134.105 238.529 135.254C238.928 136.402 239.127 137.598 239.127 138.84C239.127 139.402 239.092 139.965 239.021 140.527H226.963V137.434H235.084C235.084 136.824 234.979 136.238 234.768 135.676C234.58 135.113 234.287 134.598 233.889 134.129C233.514 133.637 233.068 133.227 232.553 132.898C232.037 132.57 231.463 132.371 230.83 132.301V128.996ZM230.689 145.695C230.947 145.695 231.264 145.672 231.639 145.625C232.037 145.555 232.447 145.449 232.869 145.309C233.314 145.145 233.748 144.945 234.17 144.711C234.615 144.477 235.002 144.195 235.33 143.867L236.877 146.223C236.104 147.184 235.201 147.91 234.17 148.402C233.139 148.895 231.826 149.141 230.232 149.141C228.943 149.141 227.736 148.883 226.611 148.367C225.486 147.828 224.525 147.102 223.729 146.188C222.932 145.273 222.299 144.207 221.83 142.988C221.361 141.77 221.127 140.457 221.127 139.051C221.127 137.715 221.338 136.449 221.76 135.254C222.205 134.059 222.803 133.016 223.553 132.125C224.303 131.211 225.17 130.473 226.154 129.91C227.162 129.348 228.24 129.031 229.389 128.961V132.336C228.521 132.5 227.807 132.852 227.244 133.391C226.682 133.93 226.236 134.551 225.908 135.254C225.604 135.934 225.381 136.637 225.24 137.363C225.123 138.09 225.064 138.711 225.064 139.227C225.064 140.141 225.17 140.996 225.381 141.793C225.615 142.566 225.967 143.246 226.436 143.832C226.904 144.395 227.479 144.852 228.158 145.203C228.861 145.531 229.705 145.695 230.689 145.695Z" fill="white"/>
<path d="M5.84766 202.844C5.84766 198.672 6.33984 194.992 7.32422 191.805C8.35547 188.57 9.76172 185.852 11.543 183.648C13.3711 181.398 15.5039 179.688 17.9414 178.516C20.4258 177.297 23.1211 176.594 26.0273 176.406V183.438C24.4336 183.625 22.9336 184.117 21.5273 184.914C20.1211 185.711 18.9023 186.883 17.8711 188.43C16.8398 189.977 16.0195 191.945 15.4102 194.336C14.8008 196.727 14.4727 199.562 14.4258 202.844C14.4727 206.172 14.8008 209.031 15.4102 211.422C16.0195 213.766 16.8398 215.734 17.8711 217.328C18.9492 218.922 20.1914 220.141 21.5977 220.984C23.0039 221.781 24.4805 222.25 26.0273 222.391V229.352C23.168 229.164 20.4961 228.484 18.0117 227.312C15.5273 226.094 13.3711 224.383 11.543 222.18C9.76172 219.93 8.35547 217.188 7.32422 213.953C6.33984 210.719 5.84766 207.016 5.84766 202.844ZM28.8398 176.406C31.6992 176.547 34.3477 177.227 36.7852 178.445C39.2695 179.664 41.4023 181.398 43.1836 183.648C45.0117 185.852 46.4414 188.57 47.4727 191.805C48.5039 194.992 49.0195 198.672 49.0195 202.844C49.0195 207.016 48.5039 210.719 47.4727 213.953C46.4414 217.188 45.0117 219.93 43.1836 222.18C41.4023 224.383 39.293 226.094 36.8555 227.312C34.418 228.484 31.7461 229.164 28.8398 229.352V222.391C30.4336 222.203 31.9336 221.711 33.3398 220.914C34.7461 220.07 35.9648 218.875 36.9961 217.328C38.0273 215.734 38.8477 213.766 39.457 211.422C40.0664 209.031 40.3945 206.172 40.4414 202.844C40.3945 199.516 40.0664 196.68 39.457 194.336C38.8477 191.945 38.0039 189.977 36.9258 188.43C35.8945 186.836 34.6758 185.641 33.2695 184.844C31.8633 184 30.3867 183.508 28.8398 183.367V176.406ZM86.8477 199.609C86.1445 198.766 85.1602 197.992 83.8945 197.289C82.6758 196.539 81.0352 196.094 78.9727 195.953V189.203C81.5508 189.344 83.7539 189.906 85.582 190.891C87.457 191.828 89.1445 193.211 90.6445 195.039L86.8477 199.609ZM78.9727 222.32C80.6602 222.133 82.0898 221.734 83.2617 221.125C84.4805 220.469 85.6289 219.719 86.707 218.875L89.8711 223.445C88.418 225.273 86.8477 226.68 85.1602 227.664C83.4727 228.602 81.4102 229.141 78.9727 229.281V222.32ZM59.3555 209.172C59.3555 206.5 59.7305 203.992 60.4805 201.648C61.2773 199.305 62.4258 197.242 63.9258 195.461C65.4258 193.68 67.1836 192.25 69.1992 191.172C71.2617 190.047 73.5586 189.391 76.0898 189.203V196.023C73.7461 196.539 71.8711 197.992 70.4648 200.383C69.0586 202.727 68.3555 205.586 68.3555 208.961C68.3555 210.695 68.5195 212.336 68.8477 213.883C69.2227 215.383 69.7383 216.719 70.3945 217.891C71.0508 219.062 71.8477 220.047 72.7852 220.844C73.7695 221.641 74.8711 222.133 76.0898 222.32V229.281C73.5117 229.141 71.1914 228.531 69.1289 227.453C67.0664 226.328 65.3086 224.875 63.8555 223.094C62.4023 221.266 61.2773 219.156 60.4805 216.766C59.7305 214.375 59.3555 211.844 59.3555 209.172ZM120.246 189.133C122.824 189.273 125.168 189.906 127.277 191.031C129.387 192.109 131.145 193.562 132.551 195.391C134.004 197.172 135.129 199.258 135.926 201.648C136.723 204.039 137.121 206.594 137.121 209.312C137.121 212.031 136.699 214.586 135.855 216.977C135.059 219.32 133.934 221.383 132.48 223.164C131.027 224.898 129.246 226.305 127.137 227.383C125.027 228.461 122.73 229.094 120.246 229.281V222.531C122.59 222.016 124.488 220.539 125.941 218.102C127.441 215.664 128.191 212.734 128.191 209.312C128.191 207.578 128.004 205.961 127.629 204.461C127.301 202.914 126.785 201.531 126.082 200.312C125.379 199.094 124.535 198.086 123.551 197.289C122.566 196.492 121.465 195.977 120.246 195.742V189.133ZM100.629 209.172C100.629 206.453 101.027 203.922 101.824 201.578C102.621 199.234 103.746 197.195 105.199 195.461C106.699 193.68 108.48 192.25 110.543 191.172C112.605 190.094 114.879 189.438 117.363 189.203V195.742C115.02 196.258 113.145 197.734 111.738 200.172C110.332 202.609 109.629 205.539 109.629 208.961C109.629 210.695 109.793 212.336 110.121 213.883C110.496 215.43 111.012 216.812 111.668 218.031C112.324 219.25 113.121 220.258 114.059 221.055C115.043 221.852 116.145 222.344 117.363 222.531V229.281C114.785 229.094 112.465 228.461 110.402 227.383C108.34 226.258 106.582 224.805 105.129 223.023C103.676 221.242 102.551 219.156 101.754 216.766C101.004 214.375 100.629 211.844 100.629 209.172ZM155.754 189.344L156.668 193.422V214.938V215.078V229H148.16V189.344H155.754ZM159.551 191.102C160.723 190.445 162.129 189.953 163.77 189.625C165.41 189.25 167.637 189.062 170.449 189.062V197.922C169.137 197.547 167.543 197.336 165.668 197.289C164.637 197.289 163.582 197.383 162.504 197.57C161.473 197.711 160.488 197.945 159.551 198.273V191.102ZM187.113 189.344L188.027 193.422V214.938V215.078V229H179.52V189.344H187.113ZM190.91 191.102C192.082 190.445 193.488 189.953 195.129 189.625C196.77 189.25 198.996 189.062 201.809 189.062V197.922C200.496 197.547 198.902 197.336 197.027 197.289C195.996 197.289 194.941 197.383 193.863 197.57C192.832 197.711 191.848 197.945 190.91 198.273V191.102ZM229.301 188.992C231.832 189.227 234.105 189.906 236.121 191.031C238.184 192.156 239.941 193.609 241.395 195.391C242.848 197.172 243.949 199.211 244.699 201.508C245.496 203.805 245.895 206.195 245.895 208.68C245.895 209.805 245.824 210.93 245.684 212.055H221.566V205.867H237.809C237.809 204.648 237.598 203.477 237.176 202.352C236.801 201.227 236.215 200.195 235.418 199.258C234.668 198.273 233.777 197.453 232.746 196.797C231.715 196.141 230.566 195.742 229.301 195.602V188.992ZM229.02 222.391C229.535 222.391 230.168 222.344 230.918 222.25C231.715 222.109 232.535 221.898 233.379 221.617C234.27 221.289 235.137 220.891 235.98 220.422C236.871 219.953 237.645 219.391 238.301 218.734L241.395 223.445C239.848 225.367 238.043 226.82 235.98 227.805C233.918 228.789 231.293 229.281 228.105 229.281C225.527 229.281 223.113 228.766 220.863 227.734C218.613 226.656 216.691 225.203 215.098 223.375C213.504 221.547 212.238 219.414 211.301 216.977C210.363 214.539 209.895 211.914 209.895 209.102C209.895 206.43 210.316 203.898 211.16 201.508C212.051 199.117 213.246 197.031 214.746 195.25C216.246 193.422 217.98 191.945 219.949 190.82C221.965 189.695 224.121 189.062 226.418 188.922V195.672C224.684 196 223.254 196.703 222.129 197.781C221.004 198.859 220.113 200.102 219.457 201.508C218.848 202.867 218.402 204.273 218.121 205.727C217.887 207.18 217.77 208.422 217.77 209.453C217.77 211.281 217.98 212.992 218.402 214.586C218.871 216.133 219.574 217.492 220.512 218.664C221.449 219.789 222.598 220.703 223.957 221.406C225.363 222.062 227.051 222.391 229.02 222.391ZM225.012 174.367H226.77V181.398L225.152 184.352H217.418L225.012 174.367ZM231.27 184.352L229.652 181.469V174.367H231.41L239.074 184.352H231.27ZM265.16 189.344L266.074 193.352V229H257.566V189.344H265.16ZM287.098 193.703C287.895 194.5 288.504 195.438 288.926 196.516C289.395 197.547 289.723 198.648 289.91 199.82C290.145 200.945 290.285 202.094 290.332 203.266C290.379 204.438 290.402 205.586 290.402 206.711V227.594V229H281.824V207.414C281.824 205.82 281.754 204.297 281.613 202.844C281.473 201.391 281.145 200.102 280.629 198.977C280.113 197.852 279.41 196.984 278.52 196.375C277.629 195.719 276.387 195.391 274.793 195.391C274.137 195.391 273.246 195.508 272.121 195.742C271.043 195.93 269.988 196.258 268.957 196.727V191.312C270.223 190.656 271.582 190.094 273.035 189.625C274.535 189.156 275.988 188.922 277.395 188.922C279.504 188.922 281.285 189.367 282.738 190.258C284.191 191.102 285.645 192.25 287.098 193.703ZM328.512 199.609C327.809 198.766 326.824 197.992 325.559 197.289C324.34 196.539 322.699 196.094 320.637 195.953V189.203C323.215 189.344 325.418 189.906 327.246 190.891C329.121 191.828 330.809 193.211 332.309 195.039L328.512 199.609ZM320.637 222.32C322.324 222.133 323.754 221.734 324.926 221.125C326.145 220.469 327.293 219.719 328.371 218.875L331.535 223.445C330.082 225.273 328.512 226.68 326.824 227.664C325.137 228.602 323.074 229.141 320.637 229.281V222.32ZM301.02 209.172C301.02 206.5 301.395 203.992 302.145 201.648C302.941 199.305 304.09 197.242 305.59 195.461C307.09 193.68 308.848 192.25 310.863 191.172C312.926 190.047 315.223 189.391 317.754 189.203V196.023C315.41 196.539 313.535 197.992 312.129 200.383C310.723 202.727 310.02 205.586 310.02 208.961C310.02 210.695 310.184 212.336 310.512 213.883C310.887 215.383 311.402 216.719 312.059 217.891C312.715 219.062 313.512 220.047 314.449 220.844C315.434 221.641 316.535 222.133 317.754 222.32V229.281C315.176 229.141 312.855 228.531 310.793 227.453C308.73 226.328 306.973 224.875 305.52 223.094C304.066 221.266 302.941 219.156 302.145 216.766C301.395 214.375 301.02 211.844 301.02 209.172ZM351.785 229H343.207V189.344H351.785V229ZM352.559 176.688C352.559 178.094 352.066 179.289 351.082 180.273C350.098 181.211 348.902 181.68 347.496 181.68C346.09 181.68 344.895 181.188 343.91 180.203C342.973 179.219 342.504 178.047 342.504 176.688C342.504 175.281 342.996 174.086 343.98 173.102C344.965 172.117 346.137 171.625 347.496 171.625C348.902 171.625 350.098 172.117 351.082 173.102C352.066 174.086 352.559 175.281 352.559 176.688ZM370.629 217.047C370.629 219.156 371.051 220.727 371.895 221.758C372.785 222.789 374.051 223.398 375.691 223.586V229.281C375.504 229.328 375.199 229.352 374.777 229.352C373.184 229.352 371.637 229.141 370.137 228.719C368.684 228.297 367.395 227.617 366.27 226.68C365.145 225.742 364.254 224.5 363.598 222.953C362.988 221.406 362.684 219.508 362.684 217.258C362.684 215.102 363.129 213.25 364.02 211.703C364.957 210.109 366.129 208.82 367.535 207.836C368.988 206.805 370.629 206.055 372.457 205.586C374.285 205.07 376.137 204.812 378.012 204.812H381.105V209.805H379.559C378.621 209.805 377.637 209.898 376.605 210.086C375.574 210.273 374.613 210.625 373.723 211.141C372.832 211.656 372.082 212.406 371.473 213.391C370.91 214.328 370.629 215.547 370.629 217.047ZM392.496 217.258C392.496 217.633 392.52 218.195 392.566 218.945C392.613 219.648 392.707 220.375 392.848 221.125C392.988 221.875 393.199 222.555 393.48 223.164C393.809 223.773 394.23 224.172 394.746 224.359L392.496 229.07C391.887 229.07 391.23 228.93 390.527 228.648C389.871 228.367 389.215 227.969 388.559 227.453C387.949 226.938 387.41 226.375 386.941 225.766C386.52 225.109 386.191 224.406 385.957 223.656C385.488 224.828 384.551 225.883 383.145 226.82C381.785 227.711 380.262 228.367 378.574 228.789V223.445C379.699 223.211 380.707 222.766 381.598 222.109C382.535 221.406 383.332 220.586 383.988 219.648V204.812C383.988 202.516 383.871 200.688 383.637 199.328C383.402 197.969 383.004 196.984 382.441 196.375C381.879 195.719 381.176 195.32 380.332 195.18C379.535 194.992 378.574 194.898 377.449 194.898C376.418 194.898 375.434 195.039 374.496 195.32C373.605 195.555 372.762 195.859 371.965 196.234C371.215 196.562 370.535 196.938 369.926 197.359C369.363 197.781 368.941 198.109 368.66 198.344L365.496 193.492C365.965 192.977 366.668 192.461 367.605 191.945C368.543 191.383 369.621 190.891 370.84 190.469C372.059 190.047 373.371 189.719 374.777 189.484C376.23 189.203 377.73 189.062 379.277 189.062C380.684 189.062 382.043 189.203 383.355 189.484C384.715 189.766 385.934 190.234 387.012 190.891C388.137 191.547 389.098 192.438 389.895 193.562C390.738 194.641 391.324 196 391.652 197.641C391.98 199.281 392.191 200.945 392.285 202.633C392.426 204.273 392.496 205.914 392.496 207.555V216.695V217.258ZM405.012 200.664C405.012 198.883 405.34 197.289 405.996 195.883C406.652 194.43 407.566 193.211 408.738 192.227C409.91 191.195 411.223 190.398 412.676 189.836C414.176 189.227 415.723 188.852 417.316 188.711V195.742C416.098 195.977 415.137 196.469 414.434 197.219C413.777 197.969 413.449 199.023 413.449 200.383C413.449 201.508 413.801 202.422 414.504 203.125C415.254 203.781 416.191 204.367 417.316 204.883V212.406C416.52 212.172 415.699 211.914 414.855 211.633C414.059 211.305 413.262 210.953 412.465 210.578C409.98 209.266 408.105 207.883 406.84 206.43C405.621 204.977 405.012 203.055 405.012 200.664ZM428.496 197.711C427.23 197.055 425.871 196.562 424.418 196.234C423.012 195.906 421.605 195.695 420.199 195.602V188.641C422.309 188.734 424.254 189.039 426.035 189.555C427.816 190.023 429.551 190.797 431.238 191.875L428.496 197.711ZM408.738 220.141C409.676 220.797 410.777 221.406 412.043 221.969C413.355 222.531 414.996 222.812 416.965 222.812H417.316V229.352C416.145 229.352 415.066 229.305 414.082 229.211C413.098 229.164 412.113 229.023 411.129 228.789C410.191 228.508 409.23 228.133 408.246 227.664C407.262 227.195 406.23 226.586 405.152 225.836L408.738 220.141ZM420.199 206.008C421.605 206.477 423.035 206.992 424.488 207.555C425.941 208.117 427.254 208.82 428.426 209.664C429.645 210.508 430.629 211.562 431.379 212.828C432.176 214.047 432.574 215.594 432.574 217.469C432.574 219.297 432.246 220.891 431.59 222.25C430.934 223.609 430.043 224.781 428.918 225.766C427.84 226.75 426.551 227.523 425.051 228.086C423.551 228.648 421.934 229.023 420.199 229.211V222.531C421.793 222.25 423.012 221.758 423.855 221.055C424.746 220.305 425.191 219.32 425.191 218.102C425.191 216.883 424.699 215.945 423.715 215.289C422.777 214.586 421.605 213.977 420.199 213.461V206.008Z" fill="white"/>
<line x1="2" y1="2" x2="438" y2="2" stroke="#FF9000" stroke-width="4"/>
<line x1="2" y1="265" x2="438" y2="265" stroke="#FF9000" stroke-width="4"/>
</svg>
