<svg width="436" height="267" viewBox="0 0 436 267" fill="none" xmlns="http://www.w3.org/2000/svg">
<path d="M85.7266 34.1797H94.1641V86H85.7266V34.1797ZM120.883 86H111.953L102.18 67.2266C102.039 67.2266 101.875 67.25 101.688 67.2969C101.547 67.2969 101.312 67.2969 100.984 67.2969C100.656 67.2969 100.164 67.2969 99.5078 67.2969C98.8984 67.2969 98.0781 67.2969 97.0469 67.2969V61.1094H101.828C102.859 61.1094 103.891 60.9453 104.922 60.6172C105.953 60.2422 106.891 59.6562 107.734 58.8594C108.578 58.0625 109.258 56.9609 109.773 55.5547C110.289 54.1016 110.547 52.3203 110.547 50.2109C110.547 49.3672 110.43 48.4062 110.195 47.3281C109.961 46.2031 109.469 45.1484 108.719 44.1641C108.016 43.1328 107.008 42.2891 105.695 41.6328C104.383 40.9297 102.648 40.5781 100.492 40.5781H97.0469V34.1797H100.633C102.836 34.1797 105.016 34.5312 107.172 35.2344C109.328 35.9375 111.25 36.9922 112.938 38.3984C114.672 39.8047 116.055 41.5156 117.086 43.5312C118.164 45.5 118.703 47.7266 118.703 50.2109C118.703 53.9609 117.836 57.1484 116.102 59.7734C114.367 62.3984 112.023 64.3438 109.07 65.6094L120.883 86ZM150.273 45.9922C152.805 46.2266 155.078 46.9062 157.094 48.0312C159.156 49.1562 160.914 50.6094 162.367 52.3906C163.82 54.1719 164.922 56.2109 165.672 58.5078C166.469 60.8047 166.867 63.1953 166.867 65.6797C166.867 66.8047 166.797 67.9297 166.656 69.0547H142.539V62.8672H158.781C158.781 61.6484 158.57 60.4766 158.148 59.3516C157.773 58.2266 157.188 57.1953 156.391 56.2578C155.641 55.2734 154.75 54.4531 153.719 53.7969C152.688 53.1406 151.539 52.7422 150.273 52.6016V45.9922ZM149.992 79.3906C150.508 79.3906 151.141 79.3438 151.891 79.25C152.688 79.1094 153.508 78.8984 154.352 78.6172C155.242 78.2891 156.109 77.8906 156.953 77.4219C157.844 76.9531 158.617 76.3906 159.273 75.7344L162.367 80.4453C160.82 82.3672 159.016 83.8203 156.953 84.8047C154.891 85.7891 152.266 86.2812 149.078 86.2812C146.5 86.2812 144.086 85.7656 141.836 84.7344C139.586 83.6562 137.664 82.2031 136.07 80.375C134.477 78.5469 133.211 76.4141 132.273 73.9766C131.336 71.5391 130.867 68.9141 130.867 66.1016C130.867 63.4297 131.289 60.8984 132.133 58.5078C133.023 56.1172 134.219 54.0312 135.719 52.25C137.219 50.4219 138.953 48.9453 140.922 47.8203C142.938 46.6953 145.094 46.0625 147.391 45.9219V52.6719C145.656 53 144.227 53.7031 143.102 54.7812C141.977 55.8594 141.086 57.1016 140.43 58.5078C139.82 59.8672 139.375 61.2734 139.094 62.7266C138.859 64.1797 138.742 65.4219 138.742 66.4531C138.742 68.2812 138.953 69.9922 139.375 71.5859C139.844 73.1328 140.547 74.4922 141.484 75.6641C142.422 76.7891 143.57 77.7031 144.93 78.4062C146.336 79.0625 148.023 79.3906 149.992 79.3906ZM192.953 86.3516C190.328 86.3516 188.031 85.7891 186.062 84.6641C184.094 83.4922 182.453 81.9453 181.141 80.0234C179.828 78.1016 178.867 75.8984 178.258 73.4141C177.648 70.9297 177.344 68.3281 177.344 65.6094C177.344 61.9531 177.836 58.8828 178.82 56.3984C179.852 53.9141 181.141 51.8984 182.688 50.3516C184.281 48.7578 186.039 47.6328 187.961 46.9766C189.93 46.3203 191.852 45.9922 193.727 45.9922C195.18 45.9922 196.562 46.1562 197.875 46.4844C199.188 46.8125 200.383 47.2812 201.461 47.8906V55.3438C200.711 54.5 199.82 53.8203 198.789 53.3047C197.805 52.7891 196.727 52.5312 195.555 52.5312C194.148 52.5312 192.859 52.9062 191.688 53.6562C190.562 54.3594 189.602 55.3203 188.805 56.5391C188.008 57.7578 187.398 59.1875 186.977 60.8281C186.555 62.4688 186.344 64.2031 186.344 66.0312C186.344 67.9062 186.555 69.6875 186.977 71.375C187.445 73.0156 188.078 74.4453 188.875 75.6641C189.719 76.8828 190.703 77.8672 191.828 78.6172C193 79.3203 194.289 79.6719 195.695 79.6719C196.867 79.6719 197.922 79.4375 198.859 78.9688C199.797 78.4531 200.664 77.7969 201.461 77V84.3125C200.336 84.875 199.047 85.3672 197.594 85.7891C196.141 86.1641 194.594 86.3516 192.953 86.3516ZM212.852 46.3438L212.781 86C212.594 88.8594 212.008 91.2969 211.023 93.3125C210.086 95.3281 208.867 96.9922 207.367 98.3047C205.867 99.6172 204.133 100.555 202.164 101.117C200.195 101.68 198.086 101.961 195.836 101.961C193.211 101.961 190.609 101.492 188.031 100.555C185.5 99.6641 183.391 98.1406 181.703 95.9844L186.625 91.1328C187.094 91.9297 187.68 92.5859 188.383 93.1016C189.133 93.6172 189.883 94.0156 190.633 94.2969C191.43 94.5781 192.203 94.7656 192.953 94.8594C193.75 95 194.453 95.0703 195.062 95.0703C197.969 95.0703 200.242 94.2266 201.883 92.5391C203.523 90.8516 204.344 87.9688 204.344 83.8906V50.3516L205.258 46.3438H212.852ZM235.07 86H226.492V46.3438H235.07V86ZM235.844 33.6875C235.844 35.0938 235.352 36.2891 234.367 37.2734C233.383 38.2109 232.188 38.6797 230.781 38.6797C229.375 38.6797 228.18 38.1875 227.195 37.2031C226.258 36.2188 225.789 35.0469 225.789 33.6875C225.789 32.2812 226.281 31.0859 227.266 30.1016C228.25 29.1172 229.422 28.625 230.781 28.625C232.188 28.625 233.383 29.1172 234.367 30.1016C235.352 31.0859 235.844 32.2812 235.844 33.6875ZM246.109 57.6641C246.109 55.8828 246.438 54.2891 247.094 52.8828C247.75 51.4297 248.664 50.2109 249.836 49.2266C251.008 48.1953 252.32 47.3984 253.773 46.8359C255.273 46.2266 256.82 45.8516 258.414 45.7109V52.7422C257.195 52.9766 256.234 53.4688 255.531 54.2188C254.875 54.9688 254.547 56.0234 254.547 57.3828C254.547 58.5078 254.898 59.4219 255.602 60.125C256.352 60.7812 257.289 61.3672 258.414 61.8828V69.4062C257.617 69.1719 256.797 68.9141 255.953 68.6328C255.156 68.3047 254.359 67.9531 253.562 67.5781C251.078 66.2656 249.203 64.8828 247.938 63.4297C246.719 61.9766 246.109 60.0547 246.109 57.6641ZM269.594 54.7109C268.328 54.0547 266.969 53.5625 265.516 53.2344C264.109 52.9062 262.703 52.6953 261.297 52.6016V45.6406C263.406 45.7344 265.352 46.0391 267.133 46.5547C268.914 47.0234 270.648 47.7969 272.336 48.875L269.594 54.7109ZM249.836 77.1406C250.773 77.7969 251.875 78.4062 253.141 78.9688C254.453 79.5312 256.094 79.8125 258.062 79.8125H258.414V86.3516C257.242 86.3516 256.164 86.3047 255.18 86.2109C254.195 86.1641 253.211 86.0234 252.227 85.7891C251.289 85.5078 250.328 85.1328 249.344 84.6641C248.359 84.1953 247.328 83.5859 246.25 82.8359L249.836 77.1406ZM261.297 63.0078C262.703 63.4766 264.133 63.9922 265.586 64.5547C267.039 65.1172 268.352 65.8203 269.523 66.6641C270.742 67.5078 271.727 68.5625 272.477 69.8281C273.273 71.0469 273.672 72.5938 273.672 74.4688C273.672 76.2969 273.344 77.8906 272.688 79.25C272.031 80.6094 271.141 81.7812 270.016 82.7656C268.938 83.75 267.648 84.5234 266.148 85.0859C264.648 85.6484 263.031 86.0234 261.297 86.2109V79.5312C262.891 79.25 264.109 78.7578 264.953 78.0547C265.844 77.3047 266.289 76.3203 266.289 75.1016C266.289 73.8828 265.797 72.9453 264.812 72.2891C263.875 71.5859 262.703 70.9766 261.297 70.4609V63.0078ZM296.031 73.9766C296.031 75.5703 296.242 76.8125 296.664 77.7031C297.086 78.5938 297.672 79.2734 298.422 79.7422C299.219 80.2109 300.086 80.5156 301.023 80.6562C302.008 80.75 303.039 80.7969 304.117 80.7969V86C303.508 86.0938 302.898 86.1641 302.289 86.2109C301.773 86.2578 301.141 86.2812 300.391 86.2812C299.688 86.3281 298.984 86.3516 298.281 86.3516C297.578 86.3516 296.852 86.3281 296.102 86.2812C295.398 86.2344 294.789 86.1641 294.273 86.0703C292.68 85.7891 291.438 85.1094 290.547 84.0312C289.656 82.9062 288.977 81.6875 288.508 80.375C288.086 79.0156 287.805 77.7031 287.664 76.4375C287.57 75.1719 287.523 74.1875 287.523 73.4844V52.1094H282.32V46.3438H287.523V35.0938H296.031V46.3438H302.359V52.1094H296.031V73.9766ZM332.734 46.1328C335.312 46.2734 337.656 46.9062 339.766 48.0312C341.875 49.1094 343.633 50.5625 345.039 52.3906C346.492 54.1719 347.617 56.2578 348.414 58.6484C349.211 61.0391 349.609 63.5938 349.609 66.3125C349.609 69.0312 349.188 71.5859 348.344 73.9766C347.547 76.3203 346.422 78.3828 344.969 80.1641C343.516 81.8984 341.734 83.3047 339.625 84.3828C337.516 85.4609 335.219 86.0938 332.734 86.2812V79.5312C335.078 79.0156 336.977 77.5391 338.43 75.1016C339.93 72.6641 340.68 69.7344 340.68 66.3125C340.68 64.5781 340.492 62.9609 340.117 61.4609C339.789 59.9141 339.273 58.5312 338.57 57.3125C337.867 56.0938 337.023 55.0859 336.039 54.2891C335.055 53.4922 333.953 52.9766 332.734 52.7422V46.1328ZM313.117 66.1719C313.117 63.4531 313.516 60.9219 314.312 58.5781C315.109 56.2344 316.234 54.1953 317.688 52.4609C319.188 50.6797 320.969 49.25 323.031 48.1719C325.094 47.0938 327.367 46.4375 329.852 46.2031V52.7422C327.508 53.2578 325.633 54.7344 324.227 57.1719C322.82 59.6094 322.117 62.5391 322.117 65.9609C322.117 67.6953 322.281 69.3359 322.609 70.8828C322.984 72.4297 323.5 73.8125 324.156 75.0312C324.812 76.25 325.609 77.2578 326.547 78.0547C327.531 78.8516 328.633 79.3438 329.852 79.5312V86.2812C327.273 86.0938 324.953 85.4609 322.891 84.3828C320.828 83.2578 319.07 81.8047 317.617 80.0234C316.164 78.2422 315.039 76.1562 314.242 73.7656C313.492 71.375 313.117 68.8438 313.117 66.1719Z" fill="white"/>
<path d="M213.607 121.684V149H209.564L209.318 146.645V121.684H213.607ZM195.818 138.805C195.818 136.977 196.064 135.441 196.557 134.199C197.072 132.957 197.729 131.949 198.525 131.176C199.322 130.402 200.201 129.852 201.162 129.523C202.146 129.172 203.107 128.996 204.045 128.996C204.771 128.996 205.463 129.078 206.119 129.242C206.775 129.406 207.361 129.641 207.877 129.945V133.672C207.479 133.25 207.033 132.91 206.541 132.652C206.049 132.395 205.498 132.266 204.889 132.266C204.162 132.266 203.518 132.453 202.955 132.828C202.393 133.18 201.912 133.672 201.514 134.305C201.139 134.938 200.846 135.664 200.635 136.484C200.424 137.305 200.318 138.184 200.318 139.121C200.318 140.059 200.436 140.938 200.67 141.758C200.904 142.555 201.221 143.258 201.619 143.867C202.018 144.477 202.498 144.957 203.061 145.309C203.646 145.66 204.279 145.836 204.959 145.836C206.107 145.836 207.08 145.379 207.877 144.465V148.121C207.314 148.426 206.658 148.684 205.908 148.895C205.182 149.082 204.408 149.176 203.588 149.176C202.65 149.176 201.725 149.012 200.811 148.684C199.92 148.332 199.123 147.77 198.42 146.996C197.529 145.988 196.873 144.746 196.451 143.27C196.029 141.77 195.818 140.281 195.818 138.805ZM228.83 128.996C230.096 129.113 231.232 129.453 232.24 130.016C233.271 130.578 234.15 131.305 234.877 132.195C235.604 133.086 236.154 134.105 236.529 135.254C236.928 136.402 237.127 137.598 237.127 138.84C237.127 139.402 237.092 139.965 237.021 140.527H224.963V137.434H233.084C233.084 136.824 232.979 136.238 232.768 135.676C232.58 135.113 232.287 134.598 231.889 134.129C231.514 133.637 231.068 133.227 230.553 132.898C230.037 132.57 229.463 132.371 228.83 132.301V128.996ZM228.689 145.695C228.947 145.695 229.264 145.672 229.639 145.625C230.037 145.555 230.447 145.449 230.869 145.309C231.314 145.145 231.748 144.945 232.17 144.711C232.615 144.477 233.002 144.195 233.33 143.867L234.877 146.223C234.104 147.184 233.201 147.91 232.17 148.402C231.139 148.895 229.826 149.141 228.232 149.141C226.943 149.141 225.736 148.883 224.611 148.367C223.486 147.828 222.525 147.102 221.729 146.188C220.932 145.273 220.299 144.207 219.83 142.988C219.361 141.77 219.127 140.457 219.127 139.051C219.127 137.715 219.338 136.449 219.76 135.254C220.205 134.059 220.803 133.016 221.553 132.125C222.303 131.211 223.17 130.473 224.154 129.91C225.162 129.348 226.24 129.031 227.389 128.961V132.336C226.521 132.5 225.807 132.852 225.244 133.391C224.682 133.93 224.236 134.551 223.908 135.254C223.604 135.934 223.381 136.637 223.24 137.363C223.123 138.09 223.064 138.711 223.064 139.227C223.064 140.141 223.17 140.996 223.381 141.793C223.615 142.566 223.967 143.246 224.436 143.832C224.904 144.395 225.479 144.852 226.158 145.203C226.861 145.531 227.705 145.695 228.689 145.695Z" fill="white"/>
<path d="M3.84766 202.844C3.84766 198.672 4.33984 194.992 5.32422 191.805C6.35547 188.57 7.76172 185.852 9.54297 183.648C11.3711 181.398 13.5039 179.688 15.9414 178.516C18.4258 177.297 21.1211 176.594 24.0273 176.406V183.438C22.4336 183.625 20.9336 184.117 19.5273 184.914C18.1211 185.711 16.9023 186.883 15.8711 188.43C14.8398 189.977 14.0195 191.945 13.4102 194.336C12.8008 196.727 12.4727 199.562 12.4258 202.844C12.4727 206.172 12.8008 209.031 13.4102 211.422C14.0195 213.766 14.8398 215.734 15.8711 217.328C16.9492 218.922 18.1914 220.141 19.5977 220.984C21.0039 221.781 22.4805 222.25 24.0273 222.391V229.352C21.168 229.164 18.4961 228.484 16.0117 227.312C13.5273 226.094 11.3711 224.383 9.54297 222.18C7.76172 219.93 6.35547 217.188 5.32422 213.953C4.33984 210.719 3.84766 207.016 3.84766 202.844ZM26.8398 176.406C29.6992 176.547 32.3477 177.227 34.7852 178.445C37.2695 179.664 39.4023 181.398 41.1836 183.648C43.0117 185.852 44.4414 188.57 45.4727 191.805C46.5039 194.992 47.0195 198.672 47.0195 202.844C47.0195 207.016 46.5039 210.719 45.4727 213.953C44.4414 217.188 43.0117 219.93 41.1836 222.18C39.4023 224.383 37.293 226.094 34.8555 227.312C32.418 228.484 29.7461 229.164 26.8398 229.352V222.391C28.4336 222.203 29.9336 221.711 31.3398 220.914C32.7461 220.07 33.9648 218.875 34.9961 217.328C36.0273 215.734 36.8477 213.766 37.457 211.422C38.0664 209.031 38.3945 206.172 38.4414 202.844C38.3945 199.516 38.0664 196.68 37.457 194.336C36.8477 191.945 36.0039 189.977 34.9258 188.43C33.8945 186.836 32.6758 185.641 31.2695 184.844C29.8633 184 28.3867 183.508 26.8398 183.367V176.406ZM84.8477 199.609C84.1445 198.766 83.1602 197.992 81.8945 197.289C80.6758 196.539 79.0352 196.094 76.9727 195.953V189.203C79.5508 189.344 81.7539 189.906 83.582 190.891C85.457 191.828 87.1445 193.211 88.6445 195.039L84.8477 199.609ZM76.9727 222.32C78.6602 222.133 80.0898 221.734 81.2617 221.125C82.4805 220.469 83.6289 219.719 84.707 218.875L87.8711 223.445C86.418 225.273 84.8477 226.68 83.1602 227.664C81.4727 228.602 79.4102 229.141 76.9727 229.281V222.32ZM57.3555 209.172C57.3555 206.5 57.7305 203.992 58.4805 201.648C59.2773 199.305 60.4258 197.242 61.9258 195.461C63.4258 193.68 65.1836 192.25 67.1992 191.172C69.2617 190.047 71.5586 189.391 74.0898 189.203V196.023C71.7461 196.539 69.8711 197.992 68.4648 200.383C67.0586 202.727 66.3555 205.586 66.3555 208.961C66.3555 210.695 66.5195 212.336 66.8477 213.883C67.2227 215.383 67.7383 216.719 68.3945 217.891C69.0508 219.062 69.8477 220.047 70.7852 220.844C71.7695 221.641 72.8711 222.133 74.0898 222.32V229.281C71.5117 229.141 69.1914 228.531 67.1289 227.453C65.0664 226.328 63.3086 224.875 61.8555 223.094C60.4023 221.266 59.2773 219.156 58.4805 216.766C57.7305 214.375 57.3555 211.844 57.3555 209.172ZM118.246 189.133C120.824 189.273 123.168 189.906 125.277 191.031C127.387 192.109 129.145 193.562 130.551 195.391C132.004 197.172 133.129 199.258 133.926 201.648C134.723 204.039 135.121 206.594 135.121 209.312C135.121 212.031 134.699 214.586 133.855 216.977C133.059 219.32 131.934 221.383 130.48 223.164C129.027 224.898 127.246 226.305 125.137 227.383C123.027 228.461 120.73 229.094 118.246 229.281V222.531C120.59 222.016 122.488 220.539 123.941 218.102C125.441 215.664 126.191 212.734 126.191 209.312C126.191 207.578 126.004 205.961 125.629 204.461C125.301 202.914 124.785 201.531 124.082 200.312C123.379 199.094 122.535 198.086 121.551 197.289C120.566 196.492 119.465 195.977 118.246 195.742V189.133ZM98.6289 209.172C98.6289 206.453 99.0273 203.922 99.8242 201.578C100.621 199.234 101.746 197.195 103.199 195.461C104.699 193.68 106.48 192.25 108.543 191.172C110.605 190.094 112.879 189.438 115.363 189.203V195.742C113.02 196.258 111.145 197.734 109.738 200.172C108.332 202.609 107.629 205.539 107.629 208.961C107.629 210.695 107.793 212.336 108.121 213.883C108.496 215.43 109.012 216.812 109.668 218.031C110.324 219.25 111.121 220.258 112.059 221.055C113.043 221.852 114.145 222.344 115.363 222.531V229.281C112.785 229.094 110.465 228.461 108.402 227.383C106.34 226.258 104.582 224.805 103.129 223.023C101.676 221.242 100.551 219.156 99.7539 216.766C99.0039 214.375 98.6289 211.844 98.6289 209.172ZM153.754 189.344L154.668 193.422V214.938V215.078V229H146.16V189.344H153.754ZM157.551 191.102C158.723 190.445 160.129 189.953 161.77 189.625C163.41 189.25 165.637 189.062 168.449 189.062V197.922C167.137 197.547 165.543 197.336 163.668 197.289C162.637 197.289 161.582 197.383 160.504 197.57C159.473 197.711 158.488 197.945 157.551 198.273V191.102ZM185.113 189.344L186.027 193.422V214.938V215.078V229H177.52V189.344H185.113ZM188.91 191.102C190.082 190.445 191.488 189.953 193.129 189.625C194.77 189.25 196.996 189.062 199.809 189.062V197.922C198.496 197.547 196.902 197.336 195.027 197.289C193.996 197.289 192.941 197.383 191.863 197.57C190.832 197.711 189.848 197.945 188.91 198.273V191.102ZM227.301 188.992C229.832 189.227 232.105 189.906 234.121 191.031C236.184 192.156 237.941 193.609 239.395 195.391C240.848 197.172 241.949 199.211 242.699 201.508C243.496 203.805 243.895 206.195 243.895 208.68C243.895 209.805 243.824 210.93 243.684 212.055H219.566V205.867H235.809C235.809 204.648 235.598 203.477 235.176 202.352C234.801 201.227 234.215 200.195 233.418 199.258C232.668 198.273 231.777 197.453 230.746 196.797C229.715 196.141 228.566 195.742 227.301 195.602V188.992ZM227.02 222.391C227.535 222.391 228.168 222.344 228.918 222.25C229.715 222.109 230.535 221.898 231.379 221.617C232.27 221.289 233.137 220.891 233.98 220.422C234.871 219.953 235.645 219.391 236.301 218.734L239.395 223.445C237.848 225.367 236.043 226.82 233.98 227.805C231.918 228.789 229.293 229.281 226.105 229.281C223.527 229.281 221.113 228.766 218.863 227.734C216.613 226.656 214.691 225.203 213.098 223.375C211.504 221.547 210.238 219.414 209.301 216.977C208.363 214.539 207.895 211.914 207.895 209.102C207.895 206.43 208.316 203.898 209.16 201.508C210.051 199.117 211.246 197.031 212.746 195.25C214.246 193.422 215.98 191.945 217.949 190.82C219.965 189.695 222.121 189.062 224.418 188.922V195.672C222.684 196 221.254 196.703 220.129 197.781C219.004 198.859 218.113 200.102 217.457 201.508C216.848 202.867 216.402 204.273 216.121 205.727C215.887 207.18 215.77 208.422 215.77 209.453C215.77 211.281 215.98 212.992 216.402 214.586C216.871 216.133 217.574 217.492 218.512 218.664C219.449 219.789 220.598 220.703 221.957 221.406C223.363 222.062 225.051 222.391 227.02 222.391ZM223.012 174.367H224.77V181.398L223.152 184.352H215.418L223.012 174.367ZM229.27 184.352L227.652 181.469V174.367H229.41L237.074 184.352H229.27ZM263.16 189.344L264.074 193.352V229H255.566V189.344H263.16ZM285.098 193.703C285.895 194.5 286.504 195.438 286.926 196.516C287.395 197.547 287.723 198.648 287.91 199.82C288.145 200.945 288.285 202.094 288.332 203.266C288.379 204.438 288.402 205.586 288.402 206.711V227.594V229H279.824V207.414C279.824 205.82 279.754 204.297 279.613 202.844C279.473 201.391 279.145 200.102 278.629 198.977C278.113 197.852 277.41 196.984 276.52 196.375C275.629 195.719 274.387 195.391 272.793 195.391C272.137 195.391 271.246 195.508 270.121 195.742C269.043 195.93 267.988 196.258 266.957 196.727V191.312C268.223 190.656 269.582 190.094 271.035 189.625C272.535 189.156 273.988 188.922 275.395 188.922C277.504 188.922 279.285 189.367 280.738 190.258C282.191 191.102 283.645 192.25 285.098 193.703ZM326.512 199.609C325.809 198.766 324.824 197.992 323.559 197.289C322.34 196.539 320.699 196.094 318.637 195.953V189.203C321.215 189.344 323.418 189.906 325.246 190.891C327.121 191.828 328.809 193.211 330.309 195.039L326.512 199.609ZM318.637 222.32C320.324 222.133 321.754 221.734 322.926 221.125C324.145 220.469 325.293 219.719 326.371 218.875L329.535 223.445C328.082 225.273 326.512 226.68 324.824 227.664C323.137 228.602 321.074 229.141 318.637 229.281V222.32ZM299.02 209.172C299.02 206.5 299.395 203.992 300.145 201.648C300.941 199.305 302.09 197.242 303.59 195.461C305.09 193.68 306.848 192.25 308.863 191.172C310.926 190.047 313.223 189.391 315.754 189.203V196.023C313.41 196.539 311.535 197.992 310.129 200.383C308.723 202.727 308.02 205.586 308.02 208.961C308.02 210.695 308.184 212.336 308.512 213.883C308.887 215.383 309.402 216.719 310.059 217.891C310.715 219.062 311.512 220.047 312.449 220.844C313.434 221.641 314.535 222.133 315.754 222.32V229.281C313.176 229.141 310.855 228.531 308.793 227.453C306.73 226.328 304.973 224.875 303.52 223.094C302.066 221.266 300.941 219.156 300.145 216.766C299.395 214.375 299.02 211.844 299.02 209.172ZM349.785 229H341.207V189.344H349.785V229ZM350.559 176.688C350.559 178.094 350.066 179.289 349.082 180.273C348.098 181.211 346.902 181.68 345.496 181.68C344.09 181.68 342.895 181.188 341.91 180.203C340.973 179.219 340.504 178.047 340.504 176.688C340.504 175.281 340.996 174.086 341.98 173.102C342.965 172.117 344.137 171.625 345.496 171.625C346.902 171.625 348.098 172.117 349.082 173.102C350.066 174.086 350.559 175.281 350.559 176.688ZM368.629 217.047C368.629 219.156 369.051 220.727 369.895 221.758C370.785 222.789 372.051 223.398 373.691 223.586V229.281C373.504 229.328 373.199 229.352 372.777 229.352C371.184 229.352 369.637 229.141 368.137 228.719C366.684 228.297 365.395 227.617 364.27 226.68C363.145 225.742 362.254 224.5 361.598 222.953C360.988 221.406 360.684 219.508 360.684 217.258C360.684 215.102 361.129 213.25 362.02 211.703C362.957 210.109 364.129 208.82 365.535 207.836C366.988 206.805 368.629 206.055 370.457 205.586C372.285 205.07 374.137 204.812 376.012 204.812H379.105V209.805H377.559C376.621 209.805 375.637 209.898 374.605 210.086C373.574 210.273 372.613 210.625 371.723 211.141C370.832 211.656 370.082 212.406 369.473 213.391C368.91 214.328 368.629 215.547 368.629 217.047ZM390.496 217.258C390.496 217.633 390.52 218.195 390.566 218.945C390.613 219.648 390.707 220.375 390.848 221.125C390.988 221.875 391.199 222.555 391.48 223.164C391.809 223.773 392.23 224.172 392.746 224.359L390.496 229.07C389.887 229.07 389.23 228.93 388.527 228.648C387.871 228.367 387.215 227.969 386.559 227.453C385.949 226.938 385.41 226.375 384.941 225.766C384.52 225.109 384.191 224.406 383.957 223.656C383.488 224.828 382.551 225.883 381.145 226.82C379.785 227.711 378.262 228.367 376.574 228.789V223.445C377.699 223.211 378.707 222.766 379.598 222.109C380.535 221.406 381.332 220.586 381.988 219.648V204.812C381.988 202.516 381.871 200.688 381.637 199.328C381.402 197.969 381.004 196.984 380.441 196.375C379.879 195.719 379.176 195.32 378.332 195.18C377.535 194.992 376.574 194.898 375.449 194.898C374.418 194.898 373.434 195.039 372.496 195.32C371.605 195.555 370.762 195.859 369.965 196.234C369.215 196.562 368.535 196.938 367.926 197.359C367.363 197.781 366.941 198.109 366.66 198.344L363.496 193.492C363.965 192.977 364.668 192.461 365.605 191.945C366.543 191.383 367.621 190.891 368.84 190.469C370.059 190.047 371.371 189.719 372.777 189.484C374.23 189.203 375.73 189.062 377.277 189.062C378.684 189.062 380.043 189.203 381.355 189.484C382.715 189.766 383.934 190.234 385.012 190.891C386.137 191.547 387.098 192.438 387.895 193.562C388.738 194.641 389.324 196 389.652 197.641C389.98 199.281 390.191 200.945 390.285 202.633C390.426 204.273 390.496 205.914 390.496 207.555V216.695V217.258ZM403.012 200.664C403.012 198.883 403.34 197.289 403.996 195.883C404.652 194.43 405.566 193.211 406.738 192.227C407.91 191.195 409.223 190.398 410.676 189.836C412.176 189.227 413.723 188.852 415.316 188.711V195.742C414.098 195.977 413.137 196.469 412.434 197.219C411.777 197.969 411.449 199.023 411.449 200.383C411.449 201.508 411.801 202.422 412.504 203.125C413.254 203.781 414.191 204.367 415.316 204.883V212.406C414.52 212.172 413.699 211.914 412.855 211.633C412.059 211.305 411.262 210.953 410.465 210.578C407.98 209.266 406.105 207.883 404.84 206.43C403.621 204.977 403.012 203.055 403.012 200.664ZM426.496 197.711C425.23 197.055 423.871 196.562 422.418 196.234C421.012 195.906 419.605 195.695 418.199 195.602V188.641C420.309 188.734 422.254 189.039 424.035 189.555C425.816 190.023 427.551 190.797 429.238 191.875L426.496 197.711ZM406.738 220.141C407.676 220.797 408.777 221.406 410.043 221.969C411.355 222.531 412.996 222.812 414.965 222.812H415.316V229.352C414.145 229.352 413.066 229.305 412.082 229.211C411.098 229.164 410.113 229.023 409.129 228.789C408.191 228.508 407.23 228.133 406.246 227.664C405.262 227.195 404.23 226.586 403.152 225.836L406.738 220.141ZM418.199 206.008C419.605 206.477 421.035 206.992 422.488 207.555C423.941 208.117 425.254 208.82 426.426 209.664C427.645 210.508 428.629 211.562 429.379 212.828C430.176 214.047 430.574 215.594 430.574 217.469C430.574 219.297 430.246 220.891 429.59 222.25C428.934 223.609 428.043 224.781 426.918 225.766C425.84 226.75 424.551 227.523 423.051 228.086C421.551 228.648 419.934 229.023 418.199 229.211V222.531C419.793 222.25 421.012 221.758 421.855 221.055C422.746 220.305 423.191 219.32 423.191 218.102C423.191 216.883 422.699 215.945 421.715 215.289C420.777 214.586 419.605 213.977 418.199 213.461V206.008Z" fill="white"/>
<line y1="2" x2="436" y2="2" stroke="#F5DF12" stroke-width="4"/>
<line y1="265" x2="436" y2="265" stroke="#F5DF12" stroke-width="4"/>
</svg>
